<?xml version="1.0" encoding="iso-8859-1"?>
<!-- Uploaded to: SVG Repo, www.svgrepo.com, Generator: SVG Repo Mixer Tools -->
<svg version="1.1" id="Layer_1" xmlns="http://www.w3.org/2000/svg" xmlns:xlink="http://www.w3.org/1999/xlink" 
	 viewBox="0 0 511.987 511.987" xml:space="preserve">
<rect x="66.717" y="204.027" transform="matrix(-0.2411 -0.9705 0.9705 -0.2411 -177.6681 420.4137)" style="fill:#B6F2FC;" width="17.648" height="151.29"/>
<polygon style="fill:#8ED7E0;" points="235.67,98.502 417.524,413.484 53.815,413.484 "/>
<polygon style="fill:#F4BD64;" points="511.987,268.44 511.987,315.737 368.184,337.491 344.872,329.255 296.635,235.133 "/>
<polygon style="fill:#4EB79B;" points="511.987,315.737 511.987,363.022 384.886,356.939 384.874,356.939 344.872,329.255 
	356.814,308.325 "/>
<polygon style="fill:#E88158;" points="511.987,221.156 511.987,268.44 328.73,259.687 276.634,248.075 300.658,211.061 "/>
<polygon style="fill:#B6F2FC;" points="384.874,356.939 385.874,358.669 113.88,263.558 300.658,211.061 328.73,259.687 
	356.802,308.325 356.814,308.325 "/>
</svg>